<?xml version="1.0" encoding="UTF-8"?>
<svg width="12px" height="8px" viewBox="0 0 12 8" version="1.1" xmlns="http://www.w3.org/2000/svg" xmlns:xlink="http://www.w3.org/1999/xlink">
    <!-- Generator: Sketch 40.3 (33839) - http://www.bohemiancoding.com/sketch -->
    <title>arrow_passive copy</title>
    <desc>Created with Sketch.</desc>
    <defs></defs>
    <g id="Page-1" stroke="none" stroke-width="1" fill="none" fill-rule="evenodd">
        <g id="Artboard" transform="translate(-444.000000, -358.000000)" fill="#00CA4C">
            <path d="M449.027,364.996 C449.191,365.159 449.39,365.242 449.625,365.242 C449.859,365.242 450.058,365.159 450.222,364.996 L455.003,360.214 C455.168,360.051 455.25,359.851 455.25,359.617 C455.25,359.382 455.168,359.183 455.003,359.019 L454.195,358.246 C454.031,358.081 453.832,358 453.597,358 C453.363,358 453.164,358.081 453,358.246 L449.625,361.62 L446.25,358.246 C446.086,358.081 445.886,358 445.652,358 C445.418,358 445.218,358.081 445.054,358.246 L444.246,359.019 C444.082,359.183 444,359.382 444,359.617 C444,359.851 444.082,360.051 444.246,360.214 L449.027,364.996 Z" id="arrow_passive-copy"></path>
        </g>
    </g>
</svg>