<svg xmlns="http://www.w3.org/2000/svg" width="17.375" height="13.16" viewBox="0 0 17.375 13.16">
  <metadata><?xpacket begin="﻿" id="W5M0MpCehiHzreSzNTczkc9d"?>
<x:xmpmeta xmlns:x="adobe:ns:meta/" x:xmptk="Adobe XMP Core 5.6-c138 79.159824, 2016/09/14-01:09:01        ">
   <rdf:RDF xmlns:rdf="http://www.w3.org/1999/02/22-rdf-syntax-ns#">
      <rdf:Description rdf:about=""/>
   </rdf:RDF>
</x:xmpmeta>
                                                                                                    
                                                                                                    
                                                                                                    
                                                                                                    
                                                                                                    
                                                                                                    
                                                                                                    
                                                                                                    
                                                                                                    
                                                                                                    
                                                                                                    
                                                                                                    
                                                                                                    
                                                                                                    
                                                                                                    
                                                                                                    
                                                                                                    
                                                                                                    
                                                                                                    
                                                                                                    
                           
<?xpacket end="w"?></metadata>
<defs>
    <style>
      .cls-1 {
        fill: #fff;
        fill-rule: evenodd;
      }
    </style>
  </defs>
  <path id="_" data-name="“" class="cls-1" d="M435.158,4149.17a3.564,3.564,0,0,0,2.775-1.12,3.982,3.982,0,0,0,1.025-2.78c0-1.86-1.067-3.1-3.2-3.7a3.056,3.056,0,0,1-.875-0.4,0.866,0.866,0,0,1-.275-0.75,2.22,2.22,0,0,1,1.175-1.87,5.524,5.524,0,0,1,2.375-.93l-0.2-1.6a7.3,7.3,0,0,0-4.95,2.78,8.752,8.752,0,0,0-1.8,5.52,5.06,5.06,0,0,0,1.15,3.7,3.8,3.8,0,0,0,2.8,1.15h0Zm9.65,0a3.564,3.564,0,0,0,2.775-1.12,3.982,3.982,0,0,0,1.025-2.78q0-2.85-3.2-3.75a3.056,3.056,0,0,1-.875-0.4,0.866,0.866,0,0,1-.275-0.75,2.182,2.182,0,0,1,1.15-1.85,6.251,6.251,0,0,1,2.4-.95l-0.2-1.55a7.3,7.3,0,0,0-4.95,2.78,8.669,8.669,0,0,0-1.8,5.47,5.189,5.189,0,0,0,1.15,3.73,3.778,3.778,0,0,0,2.8,1.17h0Z" transform="translate(-431.219 -4136.03)"/>
</svg>
