<?xml version="1.0" encoding="UTF-8"?>
<svg width="29px" height="9px" viewBox="0 0 29 9" version="1.1" xmlns="http://www.w3.org/2000/svg" xmlns:xlink="http://www.w3.org/1999/xlink">
    <!-- Generator: Sketch 40.3 (33839) - http://www.bohemiancoding.com/sketch -->
    <title>wave_line</title>
    <desc>Created with Sketch.</desc>
    <defs></defs>
    <g id="Page-1" stroke="none" stroke-width="1" fill="none" fill-rule="evenodd">
        <g id="Artboard" transform="translate(-368.000000, -158.000000)" fill="#00CA4C">
            <g id="wave_line" transform="translate(368.000000, 158.000000)">
                <rect id="Rectangle" transform="translate(2.278455, 6.405077) rotate(-45.000000) translate(-2.278455, -6.405077) " x="0.667344073" y="4.7687131" width="3.22222222" height="3.27272727"></rect>
                <rect id="Rectangle-Copy-2" transform="translate(6.306233, 2.314168) rotate(-45.000000) translate(-6.306233, -2.314168) " x="4.69512185" y="0.677804011" width="3.22222222" height="3.27272727"></rect>
                <rect id="Rectangle-Copy" transform="translate(10.334011, 6.405077) rotate(-45.000000) translate(-10.334011, -6.405077) " x="8.72289963" y="4.7687131" width="3.22222222" height="3.27272727"></rect>
                <rect id="Rectangle-Copy-4" transform="translate(14.223577, 2.314168) rotate(-45.000000) translate(-14.223577, -2.314168) " x="12.6124659" y="0.677804011" width="3.22222222" height="3.27272727"></rect>
                <rect id="Rectangle-Copy-3" transform="translate(18.251355, 6.405077) rotate(-45.000000) translate(-18.251355, -6.405077) " x="16.6402437" y="4.7687131" width="3.22222222" height="3.27272727"></rect>
                <rect id="Rectangle-Copy-6" transform="translate(22.417344, 2.314168) rotate(-45.000000) translate(-22.417344, -2.314168) " x="20.806233" y="0.677804011" width="3.22222222" height="3.27272727"></rect>
                <rect id="Rectangle-Copy-5" transform="translate(26.445122, 6.405077) rotate(-45.000000) translate(-26.445122, -6.405077) " x="24.8340107" y="4.7687131" width="3.22222222" height="3.27272727"></rect>
            </g>
        </g>
    </g>
</svg>