<?xml version="1.0" encoding="UTF-8"?>
<svg width="19px" height="13px" viewBox="0 0 19 13" version="1.1" xmlns="http://www.w3.org/2000/svg" xmlns:xlink="http://www.w3.org/1999/xlink">
    <!-- Generator: Sketch 40.3 (33839) - http://www.bohemiancoding.com/sketch -->
    <title>slider_arrow_right_hover</title>
    <desc>Created with Sketch.</desc>
    <defs></defs>
    <g id="Page-1" stroke="none" stroke-width="1" fill="none" fill-rule="evenodd">
        <g id="Artboard" transform="translate(-560.000000, -426.000000)" fill="#FFFFFF">
            <path d="M560.15,432.143 C560.05,432.241 560,432.359 560,432.5 C560,432.64 560.05,432.758 560.15,432.856 L566.316,438.852 C566.363,438.904 566.418,438.942 566.482,438.964 C566.545,438.987 566.61,438.998 566.677,438.998 C566.744,438.998 566.809,438.987 566.873,438.964 C566.936,438.942 566.991,438.904 567.038,438.852 C567.138,438.754 567.189,438.637 567.189,438.5 C567.189,438.364 567.138,438.247 567.038,438.149 L561.754,433.002 L578.478,433.002 C578.625,433.002 578.749,432.954 578.849,432.856 C578.949,432.758 579,432.641 579,432.504 C579,432.361 578.949,432.241 578.849,432.143 C578.749,432.045 578.625,431.997 578.478,431.997 L561.754,431.997 L567.038,426.85 C567.138,426.752 567.189,426.635 567.189,426.498 C567.189,426.362 567.138,426.245 567.038,426.147 C566.938,426.049 566.817,426 566.677,426 C566.537,426 566.416,426.049 566.316,426.147 L560.15,432.143 Z" id="slider_arrow_right_hover" transform="translate(569.500000, 432.499000) scale(-1, 1) translate(-569.500000, -432.499000) "></path>
        </g>
    </g>
</svg>